<svg xmlns="http://www.w3.org/2000/svg" width="1920" height="1080" viewBox="0 0 1920 1080" fill="none"><g clip-path="url(#clip0)"><rect opacity="0.25" x="-56.3936" y="449.642" width="2047.42" height="785.496" transform="rotate(-27 -56.3936 449.642)" fill="url(#paint0_linear)"/><rect opacity="0.25" x="1289.81" y="379.773" width="1023.33" height="265.507" transform="rotate(-27 1289.81 379.773)" fill="url(#paint1_linear)"/><path opacity="0.07" d="M1920.17 665.896C1904.99 657.051 1894 656.812 1887.18 665.178C1880.37 673.426 1877.02 687.41 1877.02 707.131V813.389C1877.02 833.589 1875.11 850.322 1871.41 863.589C1867.7 877.335 1861.37 887.136 1852.64 892.873C1844.15 898.729 1832.68 900.283 1818.1 897.534C1803.87 894.905 1786.06 887.494 1764.79 875.183L1754.63 869.326V785.659L1767.3 792.95C1782.48 801.795 1792.64 802.871 1797.78 796.416C1803.16 790.201 1805.91 777.173 1805.91 757.451V663.864C1805.91 639.481 1808.3 620.237 1813.08 606.014C1817.86 591.79 1827.3 582.826 1841.52 578.762C1827.3 558.323 1817.86 538.363 1813.08 518.761C1808.3 499.159 1806.03 477.166 1806.03 452.783V359.195C1806.03 339.474 1803.28 323.457 1797.9 310.907C1792.88 298.596 1782.72 288.078 1767.42 279.233L1754.75 271.942V188.275L1764.91 194.132C1786.18 206.443 1803.99 219.471 1818.22 233.336C1832.8 247.32 1844.27 262.261 1852.76 277.919C1861.6 293.815 1867.82 310.788 1871.52 328.836C1875.23 346.406 1877.14 365.411 1877.14 385.491V491.748C1877.14 511.47 1880.49 529.398 1887.3 545.415C1894.11 561.551 1905.11 573.981 1920.29 582.706L1920.17 665.896Z" fill="url(#paint2_linear)"/><path opacity="0.07" d="M1534.7 358.12C1549.88 366.964 1560.88 367.204 1567.69 358.837C1574.51 350.59 1577.85 336.605 1577.85 316.884V210.626C1577.85 190.427 1579.76 173.693 1583.47 160.426C1587.18 146.681 1593.27 136.76 1601.76 130.903C1610.6 125.166 1622.08 123.612 1636.3 126.242C1650.88 128.991 1668.81 136.521 1690.09 148.832L1700.25 154.689V238.356L1687.58 231.065C1672.4 222.22 1662 221.025 1656.62 227.24C1651.6 233.695 1648.97 246.723 1648.97 266.444V360.032C1648.97 384.415 1646.58 403.659 1641.8 417.882C1637.02 431.986 1627.57 441.07 1613.35 445.134C1627.57 465.572 1637.02 485.533 1641.8 505.135C1646.58 524.737 1648.85 546.73 1648.85 571.113V664.7C1648.85 684.422 1651.36 700.438 1656.5 712.749C1661.88 725.299 1672.28 735.937 1687.46 744.662L1700.13 751.953V835.621L1689.97 829.764C1668.69 817.453 1650.76 804.305 1636.18 790.321C1621.96 776.456 1610.48 761.635 1601.64 745.738C1593.15 730.08 1587.06 713.227 1583.35 695.06C1579.65 677.489 1577.73 658.485 1577.73 638.405V532.148C1577.73 512.426 1574.39 494.497 1567.57 478.481C1560.76 462.345 1549.76 449.915 1534.58 441.189L1534.7 358.12Z" fill="url(#paint3_linear)"/><path opacity="0.4" d="M1872.36 701.753C1857.18 692.908 1846.19 692.669 1839.37 701.036C1832.56 709.283 1829.21 723.267 1829.21 742.989V849.246C1829.21 869.446 1827.3 886.179 1823.6 899.447C1819.89 913.192 1813.56 922.993 1804.83 928.73C1796.34 934.587 1784.87 936.141 1770.29 933.391C1756.06 930.762 1738.25 923.351 1716.98 911.04L1706.82 905.184V821.517L1719.49 828.807C1734.67 837.652 1744.83 838.728 1749.97 832.274C1755.35 826.058 1758.1 813.03 1758.1 793.309V699.721C1758.1 675.338 1760.49 656.094 1765.27 641.871C1770.05 627.648 1779.49 618.683 1793.71 614.619C1779.49 594.181 1770.05 574.22 1765.27 554.618C1760.49 535.016 1758.22 513.023 1758.22 488.641V395.053C1758.22 375.331 1755.47 359.315 1750.09 346.765C1745.07 334.454 1734.91 323.936 1719.61 315.091L1706.94 307.8V224.133L1717.1 229.989C1738.37 242.3 1756.18 255.328 1770.41 269.193C1784.99 283.178 1796.46 298.118 1804.95 313.776C1813.79 329.673 1820.01 346.645 1823.71 364.693C1827.42 382.264 1829.33 401.268 1829.33 421.348V527.605C1829.33 547.327 1832.68 565.256 1839.49 581.272C1846.31 597.408 1857.3 609.838 1872.48 618.564L1872.36 701.753Z" fill="url(#paint4_linear)"/><path opacity="0.4" d="M1486.89 393.977C1502.07 402.822 1513.07 403.061 1519.88 394.694C1526.7 386.447 1530.04 372.463 1530.04 352.741V246.484C1530.04 226.284 1531.96 209.551 1535.66 196.283C1539.37 182.538 1545.46 172.617 1553.95 166.761C1562.79 161.024 1574.27 159.47 1588.49 162.099C1603.07 164.848 1621 172.378 1642.28 184.689L1652.44 190.546V274.213L1639.77 266.922C1624.59 258.078 1614.19 256.882 1608.81 263.098C1603.79 269.552 1601.16 282.58 1601.16 302.302V395.889C1601.16 420.272 1598.77 439.516 1593.99 453.739C1589.21 467.843 1579.77 476.927 1565.54 480.991C1579.77 501.43 1589.21 521.39 1593.99 540.992C1598.77 560.594 1601.04 582.587 1601.04 606.97V700.558C1601.04 720.279 1603.55 736.295 1608.69 748.607C1614.07 761.157 1624.47 771.794 1639.65 780.52L1652.32 787.811V871.478L1642.16 865.621C1620.88 853.31 1602.95 840.162 1588.37 826.178C1574.15 812.313 1562.67 797.492 1553.83 781.595C1545.34 765.938 1539.25 749.085 1535.54 730.917C1531.84 713.347 1529.92 694.342 1529.92 674.262V568.005C1529.92 548.283 1526.58 530.355 1519.76 514.338C1512.95 498.202 1501.95 485.772 1486.77 477.047L1486.89 393.977Z" fill="url(#paint5_linear)"/><path opacity="0.15" d="M1221.55 139.629L1425.82 257.599L1425.7 746.814L1221.43 628.843L1221.55 139.629Z" fill="url(#paint6_linear)"/><path d="M1183.18 214.81L1345.62 308.636V353.697L1183.18 259.87V214.81Z" fill="#5ABEED"/><path opacity="0.15" d="M1246.77 410.352L1402.87 500.473V570.515L1246.77 480.393V410.352Z" fill="#3797C3"/><path opacity="0.15" d="M1246.65 325.609L1402.99 415.85V432.105L1246.65 341.984V325.609Z" fill="#3797C3"/><path opacity="0.15" d="M1246.65 357.402L1381.83 435.452V451.707L1246.65 373.658V357.402Z" fill="#3797C3"/><path opacity="0.2" d="M1221.55 139.629L1425.82 257.599V323.218L1221.55 205.248V139.629Z" fill="url(#paint7_linear)"/><path opacity="0.2" d="M1272.59 202.26C1272.59 212.18 1266.73 216.842 1259.56 212.778C1252.39 208.594 1246.65 197.24 1246.65 187.319C1246.65 177.398 1252.51 172.737 1259.68 176.801C1266.73 180.984 1272.59 192.339 1272.59 202.26Z" fill="#3797C3"/><path opacity="0.15" d="M1472.55 593.225L1676.82 711.195L1676.7 1200.41L1472.43 1082.44L1472.55 593.225Z" fill="url(#paint8_linear)"/><path d="M1550.36 735.578L1712.8 829.286V874.227L1550.24 780.52L1550.36 735.578Z" fill="#B777CF"/><path opacity="0.15" d="M1497.77 782.073L1653.99 872.315V942.236L1497.77 851.995V782.073Z" fill="#3797C3"/><path opacity="0.15" d="M1497.53 881.996L1653.87 972.237V988.492L1497.53 898.371V881.996Z" fill="#3797C3"/><path opacity="0.15" d="M1497.53 911.399L1632.71 989.449V1005.7L1497.53 927.654V911.399Z" fill="#3797C3"/><path opacity="0.2" d="M1472.55 593.225L1676.82 711.195V776.814L1472.55 658.844V593.225Z" fill="url(#paint9_linear)"/><path opacity="0.2" d="M1523.59 655.975C1523.59 665.895 1517.73 670.557 1510.56 666.493C1503.39 662.31 1497.65 650.955 1497.65 641.034C1497.65 631.114 1503.51 626.452 1510.68 630.516C1517.73 634.58 1523.59 646.054 1523.59 655.975Z" fill="#3797C3"/><path opacity="0.3" d="M1437.17 660.995L1081.59 455.771L1081.71 641.154L1405.98 828.329L1437.41 874.825L1437.17 660.995Z" fill="url(#paint10_linear)"/><path opacity="0.15" d="M1345.74 653.345L1267.81 608.404V624.66L1345.74 669.601V653.345Z" fill="#3797C3"/><path opacity="0.15" d="M1345.74 685.976L1152.82 574.579V590.834L1345.86 702.231L1345.74 685.976Z" fill="#3797C3"/><path opacity="0.15" d="M1345.86 718.606L1112.9 584.141V600.396L1345.86 734.861V718.606Z" fill="#3797C3"/><path d="M1364.98 681.434C1364.98 696.733 1374.06 714.303 1385.18 720.757C1396.29 727.212 1405.38 720.04 1405.38 704.741C1405.38 689.442 1396.29 671.872 1385.18 665.417C1373.94 658.963 1364.98 666.135 1364.98 681.434Z" fill="#B777CF"/><path opacity="0.15" d="M1116.73 325.609L1069.63 298.357V282.461L1116.73 309.712C1120.55 311.983 1126.17 316.406 1130.95 323.338C1136.09 330.749 1139.79 340.071 1139.79 350.231C1139.79 361.466 1136.93 367.801 1131.55 369.714C1126.41 371.387 1120.43 368.518 1116.73 366.367L1097.36 355.132L1097.24 355.012C1095.57 354.056 1092.94 353.1 1090.91 353.697C1089.24 354.175 1087.2 355.968 1087.2 362.184C1087.2 368.399 1089.12 372.224 1090.79 374.495C1092.82 377.363 1095.45 379.395 1097.12 380.232L1097.36 380.351L1156.65 414.535V430.432L1097.72 396.368C1093.66 394.216 1087.8 389.794 1082.78 382.742C1077.28 374.973 1073.46 365.172 1073.46 354.175C1073.46 343.299 1077.28 337.681 1082.66 336.127C1087.68 334.693 1093.54 336.844 1097.6 339.235L1116.85 350.351C1119.6 351.904 1121.75 352.622 1123.06 352.143C1124.14 351.785 1126.05 350.231 1126.05 342.223C1126.05 336.964 1124.38 333.617 1122.7 331.227C1120.79 328.597 1118.28 326.446 1116.73 325.609Z" fill="#3797C3"/><path d="M1083.62 300.031C1083.62 313.656 1075.61 319.991 1065.81 314.374C1056.01 308.756 1048 293.098 1048 279.472C1048 265.847 1056.01 259.512 1065.81 265.13C1075.61 270.867 1083.62 286.524 1083.62 300.031Z" fill="#5ABEED"/><path d="M1178.04 431.508C1178.04 445.134 1170.03 451.468 1160.23 445.851C1150.43 440.233 1142.42 424.575 1142.42 410.95C1142.42 397.324 1150.43 390.989 1160.23 396.607C1170.03 402.344 1178.04 418.001 1178.04 431.508Z" fill="#5ABEED"/><path opacity="0.2" d="M1305.1 847.095C1312.27 851.278 1318.01 861.199 1318.01 869.566V906.021L1342.15 919.885C1349.32 924.069 1355.06 933.989 1355.06 942.356C1355.06 950.603 1349.2 953.95 1342.15 949.886L1318.01 936.021V972.476C1318.01 980.723 1312.15 984.07 1305.1 980.006C1297.93 975.823 1292.19 965.902 1292.19 957.536V921.081L1268.05 907.216C1260.87 903.032 1255.14 893.112 1255.14 884.745C1255.14 876.498 1260.99 873.151 1268.05 877.215L1292.19 891.08V854.625C1292.19 846.258 1297.93 842.912 1305.1 847.095Z" fill="url(#paint11_linear)"/></g><defs><linearGradient id="paint0_linear" x1="2058.81" y1="730.195" x2="1519.52" y2="1386.21" gradientUnits="userSpaceOnUse"><stop stop-color="#3797C3"/><stop offset="1" stop-color="#3797C3" stop-opacity="0"/></linearGradient><linearGradient id="paint1_linear" x1="2349.56" y1="469.478" x2="2211.76" y2="703.049" gradientUnits="userSpaceOnUse"><stop stop-color="#3797C3"/><stop offset="1" stop-color="#3797C3" stop-opacity="0"/></linearGradient><linearGradient id="paint2_linear" x1="1995.37" y1="212.441" x2="1700.58" y2="723.347" gradientUnits="userSpaceOnUse"><stop stop-color="#3797C3"/><stop offset="1" stop-color="#3797C3" stop-opacity="0"/></linearGradient><linearGradient id="paint3_linear" x1="1853.63" y1="128.449" x2="1558.84" y2="639.355" gradientUnits="userSpaceOnUse"><stop stop-color="#3797C3"/><stop offset="1" stop-color="#3797C3" stop-opacity="0"/></linearGradient><linearGradient id="paint4_linear" x1="1947.56" y1="248.299" x2="1652.77" y2="759.204" gradientUnits="userSpaceOnUse"><stop stop-color="#3797C3"/><stop offset="1" stop-color="#3797C3" stop-opacity="0"/></linearGradient><linearGradient id="paint5_linear" x1="1805.82" y1="164.306" x2="1511.03" y2="675.212" gradientUnits="userSpaceOnUse"><stop stop-color="#3797C3"/><stop offset="1" stop-color="#3797C3" stop-opacity="0"/></linearGradient><linearGradient id="paint6_linear" x1="1429.52" y1="259.695" x2="1234.38" y2="597.786" gradientUnits="userSpaceOnUse"><stop stop-color="#3797C3"/><stop offset="1" stop-color="#3797C3" stop-opacity="0"/></linearGradient><linearGradient id="paint7_linear" x1="1291.63" y1="140.628" x2="1353.8" y2="316.899" gradientUnits="userSpaceOnUse"><stop stop-color="#3797C3"/><stop offset="1" stop-color="#3797C3" stop-opacity="0"/></linearGradient><linearGradient id="paint8_linear" x1="1680.52" y1="713.321" x2="1485.37" y2="1051.41" gradientUnits="userSpaceOnUse"><stop stop-color="#3797C3"/><stop offset="1" stop-color="#3797C3" stop-opacity="0"/></linearGradient><linearGradient id="paint9_linear" x1="1542.63" y1="594.254" x2="1604.8" y2="770.525" gradientUnits="userSpaceOnUse"><stop stop-color="#3797C3"/><stop offset="1" stop-color="#3797C3" stop-opacity="0"/></linearGradient><linearGradient id="paint10_linear" x1="1359.64" y1="586.809" x2="1175.99" y2="730.601" gradientUnits="userSpaceOnUse"><stop stop-color="#3797C3"/><stop offset="1" stop-color="#3797C3" stop-opacity="0"/></linearGradient><linearGradient id="paint11_linear" x1="1330.03" y1="893.665" x2="1267.43" y2="943.034" gradientUnits="userSpaceOnUse"><stop stop-color="#3797C3"/><stop offset="1" stop-color="#3797C3" stop-opacity="0"/></linearGradient><clipPath id="clip0"><rect width="1920" height="1200" fill="white"/></clipPath></defs></svg>