<svg xmlns="http://www.w3.org/2000/svg" width="1432" height="320" viewBox="0 0 1432 320" fill="none"><path d="M234.99 202.29C252.19 170.145 264.771 137.85 258.758 101.308C257.04 90.8602 255.232 80.4036 252.821 70.1002C250.654 60.8306 249.533 51.844 258.572 45.8262C267.108 40.1426 275.763 43.2648 284.092 47.4365C318.67 64.7572 330.464 105.844 309.788 139.509C292.179 168.18 266.077 187.626 234.99 202.29Z" fill="#515658"></path><path fill-rule="evenodd" clip-rule="evenodd" d="M101.214 53.6018C149.424 54.5504 190.106 71.4597 223.912 116.082C222.82 81.0006 205.696 41.4091 185.834 20.7709C159.678 -6.40774 118.431 -6.9685 91.4489 19.4096C85.3482 25.3736 80.4361 32.184 82.3797 40.9335C84.4819 50.4036 92.8892 53.438 101.214 53.6018ZM143.994 88.4321C93.7806 106.176 64.4353 142.319 46.0321 189.287C42.6456 197.928 36.1897 205.38 26.0248 204.809C14.915 204.184 9.47867 195.092 5.52333 185.967C-8.33609 153.994 4.55612 117.518 36.6942 100.162C70.1036 82.1196 106.076 81.1343 143.994 88.4321ZM103.985 135.993C98.9711 196.306 123.335 236.896 162.457 270.698C171.286 278.326 178.322 288.323 173.323 300.923C167.743 314.993 154.476 318.58 141.26 319.757C110.388 322.508 81.2101 301.63 72.5144 271.609C62.1857 235.949 75.1264 173.146 103.985 135.993Z" fill="#3797C3"></path><path fill-rule="evenodd" clip-rule="evenodd" d="M380 104V215.682H429.093C453.811 215.682 466.254 204.642 466.254 182.561C466.254 168.481 458.413 160.001 442.56 157.281C457.39 151.841 464.72 142.721 464.72 129.92C464.72 112.64 453.47 104 430.798 104H380ZM449.379 183.681C449.379 197.122 442.39 204.002 428.071 204.002H395.342V115.68H429.434C442.049 115.68 448.356 120.96 448.356 131.36C448.356 143.841 436.935 151.521 414.263 154.401V163.841H420.911C439.833 163.841 449.379 170.401 449.379 183.681ZM562.07 168.326C562.07 145.126 549.797 133.605 524.909 133.605C497.976 133.605 484.68 147.046 484.68 173.766C484.68 201.767 499.681 215.687 529.682 215.687C540.762 215.687 550.138 214.567 557.809 212.487V200.807C550.138 202.887 541.274 204.007 531.387 204.007C510.42 204.007 500.022 195.527 500.022 178.886H561.388C561.9 175.046 562.07 171.526 562.07 168.326ZM547.41 166.726H500.022C501.044 152.326 509.397 145.286 524.909 145.286C539.569 145.286 547.07 152.326 547.41 166.726ZM582.709 215.687V133.605H593.107L595.834 144.166C604.869 137.126 614.585 133.605 625.324 133.605C647.144 133.605 658.053 143.846 658.053 164.166V215.687H642.712V164.006C642.712 151.846 636.234 145.606 623.279 145.606C614.415 145.606 606.062 149.126 598.221 156.006V215.687H582.709ZM798.551 115.68V104H720.649V215.682H735.991V164.961H795.482V153.121H735.991V115.68H798.551ZM810.625 190.886C810.625 174.086 822.387 165.606 846.082 165.606C853.582 165.606 861.253 166.246 868.924 167.206V159.526C868.924 150.086 861.082 145.446 845.229 145.446C836.365 145.446 827.16 146.726 817.614 149.286V137.606C827.16 134.886 836.365 133.605 845.229 133.605C871.31 133.605 884.265 142.086 884.265 159.046V215.687H875.572L870.287 207.527C861.594 212.967 852.048 215.687 841.82 215.687C821.023 215.687 810.625 207.367 810.625 190.886ZM846.082 177.446C832.615 177.446 825.967 181.766 825.967 190.726C825.967 199.527 831.251 204.007 841.82 204.007C852.389 204.007 861.423 201.287 868.924 196.007V179.046C861.253 177.926 853.582 177.446 846.082 177.446ZM918.721 120.324H909.004V193.605C909.004 208.325 916.334 215.685 930.994 215.685H945.654V204.005H935.085C927.926 204.005 924.516 200.165 924.516 192.485V145.444H945.654V133.604H921.959L918.721 120.324ZM965.371 120.324H975.087L978.326 133.604H1002.02V145.444H980.883V192.485C980.883 200.165 984.292 204.005 991.452 204.005H1002.02V215.685H987.36C972.701 215.685 965.371 208.325 965.371 193.605V120.324ZM1058.78 204.007C1041.22 204.007 1032.53 194.087 1032.53 174.406C1032.53 155.046 1041.22 145.446 1058.78 145.446C1076.34 145.446 1085.03 155.046 1085.03 174.406C1085.03 194.087 1076.34 204.007 1058.78 204.007ZM1058.78 133.605C1030.99 133.605 1017.19 147.366 1017.19 174.726C1017.19 201.927 1031.16 215.687 1058.78 215.687C1086.56 215.687 1100.37 201.927 1100.37 174.726C1100.37 147.366 1086.56 133.605 1058.78 133.605Z" fill="#515658"></path><path fill-rule="evenodd" clip-rule="evenodd" d="M380 252.49V304.608H386.928V258.015H401.17C407.637 258.015 410.87 260.927 410.87 266.751C410.87 273.546 405.327 277.727 394.319 279.295L395.782 284.97C410.793 282.73 418.261 276.607 418.261 266.452C418.261 257.119 412.795 252.49 401.786 252.49H380ZM460.113 282.5C460.113 271.673 454.57 266.297 443.331 266.297C431.167 266.297 425.163 272.569 425.163 285.038C425.163 298.105 431.937 304.601 445.486 304.601C450.49 304.601 454.724 304.079 458.188 303.108V297.657C454.724 298.628 450.721 299.151 446.256 299.151C436.787 299.151 432.091 295.193 432.091 287.428H459.805C460.036 285.636 460.113 283.993 460.113 282.5ZM453.492 281.753H432.091C432.553 275.033 436.325 271.747 443.331 271.747C449.951 271.747 453.338 275.033 453.492 281.753ZM469.976 304.601V266.297H474.672L475.903 271.225C479.368 267.939 483.525 266.297 488.452 266.297V271.897C483.679 271.897 479.907 273.539 476.981 276.75V304.601H469.976ZM495.245 296.911V302.809C499.941 304.004 504.56 304.601 509.333 304.601C520.265 304.601 525.731 300.943 525.731 293.7C525.731 286.158 521.189 282.35 512.182 282.35H506.562C502.405 282.35 500.326 280.633 500.326 277.273C500.326 273.614 503.637 271.822 510.18 271.822C514.876 271.822 519.572 272.494 524.191 273.987V268.163C519.572 266.894 514.876 266.297 510.18 266.297C499.248 266.297 493.783 269.955 493.783 277.273C493.783 284.814 498.017 288.548 506.562 288.548H512.182C516.57 288.548 518.802 290.265 518.802 293.7C518.802 297.284 515.646 299.151 509.333 299.151C504.56 299.151 499.941 298.404 495.245 296.911ZM540.273 285.337C540.273 294.521 544.199 299.151 552.128 299.151C560.057 299.151 563.984 294.521 563.984 285.337C563.984 276.302 560.057 271.822 552.128 271.822C544.199 271.822 540.273 276.302 540.273 285.337ZM533.344 285.486C533.344 272.718 539.58 266.297 552.128 266.297C564.676 266.297 570.912 272.718 570.912 285.486C570.912 298.18 564.676 304.601 552.128 304.601C539.657 304.601 533.344 298.18 533.344 285.486ZM580.608 266.297V304.601H587.614V276.75C591.155 273.539 594.927 271.897 598.93 271.897C604.781 271.897 607.706 274.809 607.706 280.484V304.601H614.635V280.558C614.635 271.075 609.708 266.297 599.854 266.297C595.004 266.297 590.616 267.939 586.536 271.225L585.304 266.297H580.608ZM624.371 293.028C624.371 285.188 629.683 281.23 640.383 281.23C643.771 281.23 647.235 281.529 650.699 281.977V278.393C650.699 273.987 647.158 271.822 639.999 271.822C635.995 271.822 631.838 272.419 627.527 273.614V268.163C631.838 266.894 635.995 266.297 639.999 266.297C651.777 266.297 657.628 270.254 657.628 278.169V304.601H653.702L651.315 300.793C647.389 303.332 643.078 304.601 638.459 304.601C629.067 304.601 624.371 300.719 624.371 293.028ZM640.383 286.756C634.302 286.756 631.299 288.772 631.299 292.953C631.299 297.06 633.686 299.151 638.459 299.151C643.232 299.151 647.312 297.881 650.699 295.417V287.502C647.235 286.98 643.771 286.756 640.383 286.756ZM669.534 252.49H676.463V304.608H669.534V252.49ZM696.418 266.303V304.608H689.49V266.303H696.418ZM696.418 252.49V258.836H689.49V252.49H696.418ZM738.558 266.297H707.765V271.822H730.86L706.995 299.524V304.601H737.788V299.524H715.001L738.558 271.822V266.297ZM746.207 293.028C746.207 285.188 751.518 281.23 762.219 281.23C765.606 281.23 769.071 281.529 772.535 281.977V278.393C772.535 273.987 768.994 271.822 761.834 271.822C757.831 271.822 753.674 272.419 749.363 273.614V268.163C753.674 266.894 757.831 266.297 761.834 266.297C773.613 266.297 779.463 270.254 779.463 278.169V304.601H775.537L773.151 300.793C769.225 303.332 764.914 304.601 760.295 304.601C750.903 304.601 746.207 300.719 746.207 293.028ZM762.219 286.756C756.137 286.756 753.135 288.772 753.135 292.953C753.135 297.06 755.522 299.151 760.295 299.151C765.068 299.151 769.148 297.881 772.535 295.417V287.502C769.071 286.98 765.606 286.756 762.219 286.756ZM791.02 266.297V304.601H798.025V276.75C801.566 273.539 805.338 271.897 809.342 271.897C815.192 271.897 818.118 274.809 818.118 280.484V304.601H825.046V280.558C825.046 271.075 820.119 266.297 810.265 266.297C805.415 266.297 801.027 267.939 796.947 271.225L795.716 266.297H791.02ZM863.112 274.143C860.341 272.799 857.108 272.127 853.489 272.127C845.56 272.127 841.634 276.234 841.634 284.447C841.634 294.154 845.56 299.008 853.489 299.008C857.108 299.008 860.341 298.485 863.112 297.589V274.143ZM870.118 302.293C865.345 303.861 859.417 304.608 852.412 304.608C840.633 304.608 834.782 297.962 834.782 284.671C834.782 272.426 841.018 266.303 853.489 266.303C856.877 266.303 860.11 266.9 863.112 268.17V252.49H870.118V302.293ZM898.729 299.151C890.8 299.151 886.874 294.521 886.874 285.337C886.874 276.302 890.8 271.822 898.729 271.822C906.659 271.822 910.585 276.302 910.585 285.337C910.585 294.521 906.659 299.151 898.729 299.151ZM898.729 266.297C886.181 266.297 879.946 272.718 879.946 285.486C879.946 298.18 886.258 304.601 898.729 304.601C911.278 304.601 917.513 298.18 917.513 285.486C917.513 272.718 911.278 266.297 898.729 266.297ZM939.875 302.809V296.911C944.571 298.404 949.19 299.151 953.963 299.151C960.276 299.151 963.432 297.284 963.432 293.7C963.432 290.265 961.2 288.548 956.812 288.548H951.192C942.647 288.548 938.413 284.814 938.413 277.273C938.413 269.955 943.879 266.297 954.81 266.297C959.506 266.297 964.202 266.894 968.821 268.163V273.987C964.202 272.494 959.506 271.822 954.81 271.822C948.267 271.822 944.956 273.614 944.956 277.273C944.956 280.633 947.035 282.35 951.192 282.35H956.812C965.819 282.35 970.361 286.158 970.361 293.7C970.361 300.943 964.895 304.601 953.963 304.601C949.19 304.601 944.571 304.004 939.875 302.809ZM1014.1 304.601V266.297H1007.17V294.148C1003.55 297.359 999.783 299.001 995.779 299.001C989.929 299.001 987.08 296.164 987.08 290.489V266.297H980.075V290.34C980.075 299.823 984.617 304.601 993.701 304.601C998.551 304.601 1003.32 302.959 1008.17 299.748L1009.33 304.601H1014.1ZM1023.84 293.028C1023.84 285.188 1029.15 281.23 1039.85 281.23C1043.24 281.23 1046.7 281.529 1050.17 281.977V278.393C1050.17 273.987 1046.62 271.822 1039.47 271.822C1035.46 271.822 1031.31 272.419 1026.99 273.614V268.163C1031.31 266.894 1035.46 266.297 1039.47 266.297C1051.24 266.297 1057.09 270.254 1057.09 278.169V304.601H1053.17L1050.78 300.793C1046.86 303.332 1042.54 304.601 1037.93 304.601C1028.53 304.601 1023.84 300.719 1023.84 293.028ZM1039.85 286.756C1033.77 286.756 1030.77 288.772 1030.77 292.953C1030.77 297.06 1033.15 299.151 1037.93 299.151C1042.7 299.151 1046.78 297.881 1050.17 295.417V287.502C1046.7 286.98 1043.24 286.756 1039.85 286.756ZM1068.36 296.911V302.809C1073.06 304.004 1077.68 304.601 1082.45 304.601C1093.38 304.601 1098.85 300.943 1098.85 293.7C1098.85 286.158 1094.31 282.35 1085.3 282.35H1079.68C1075.52 282.35 1073.44 280.633 1073.44 277.273C1073.44 273.614 1076.75 271.822 1083.3 271.822C1087.99 271.822 1092.69 272.494 1097.31 273.987V268.163C1092.69 266.894 1087.99 266.297 1083.3 266.297C1072.37 266.297 1066.9 269.955 1066.9 277.273C1066.9 284.814 1071.13 288.548 1079.68 288.548H1085.3C1089.69 288.548 1091.92 290.265 1091.92 293.7C1091.92 297.284 1088.76 299.151 1082.45 299.151C1077.68 299.151 1073.06 298.404 1068.36 296.911ZM1123.68 302.809V296.911C1128.38 298.404 1132.99 299.151 1137.77 299.151C1144.08 299.151 1147.24 297.284 1147.24 293.7C1147.24 290.265 1145 288.548 1140.62 288.548H1135C1126.45 288.548 1122.22 284.814 1122.22 277.273C1122.22 269.955 1127.68 266.297 1138.61 266.297C1143.31 266.297 1148.01 266.894 1152.63 268.163V273.987C1148.01 272.494 1143.31 271.822 1138.61 271.822C1132.07 271.822 1128.76 273.614 1128.76 277.273C1128.76 280.633 1130.84 282.35 1135 282.35H1140.62C1149.62 282.35 1154.16 286.158 1154.16 293.7C1154.16 300.943 1148.7 304.601 1137.77 304.601C1132.99 304.601 1128.38 304.004 1123.68 302.809ZM1180.56 299.151C1172.63 299.151 1168.71 294.521 1168.71 285.337C1168.71 276.302 1172.63 271.822 1180.56 271.822C1188.49 271.822 1192.42 276.302 1192.42 285.337C1192.42 294.521 1188.49 299.151 1180.56 299.151ZM1180.56 266.297C1168.01 266.297 1161.78 272.718 1161.78 285.486C1161.78 298.18 1168.09 304.601 1180.56 304.601C1193.11 304.601 1199.35 298.18 1199.35 285.486C1199.35 272.718 1193.11 266.297 1180.56 266.297ZM1216.67 252.49H1209.74V304.608H1216.67V252.49ZM1262.67 304.601V266.297H1255.75V294.148C1252.13 297.359 1248.36 299.001 1244.35 299.001C1238.5 299.001 1235.65 296.164 1235.65 290.489V266.297H1228.65V290.34C1228.65 299.823 1233.19 304.601 1242.27 304.601C1247.12 304.601 1251.9 302.959 1256.75 299.748L1257.9 304.601H1262.67ZM1288.58 304.303C1277.8 302.735 1272.41 296.239 1272.41 284.74C1272.41 272.419 1279.57 266.297 1293.81 266.297C1297.58 266.297 1301.13 266.67 1304.36 267.417V272.867C1301.13 272.121 1297.82 271.822 1294.58 271.822C1284.42 271.822 1279.34 276.078 1279.34 284.74C1279.34 294.297 1284.42 299.151 1294.58 299.151C1297.82 299.151 1301.13 298.777 1304.36 298.031V303.481C1301.13 304.228 1297.58 304.601 1293.81 304.601H1293.35L1291.81 307.439C1297.2 307.439 1299.89 309.529 1299.89 313.711C1299.89 317.892 1296.89 319.983 1290.81 319.983C1288.12 319.983 1285.42 319.386 1282.73 318.191V314.233C1285.42 315.428 1288.12 316.025 1290.81 316.025C1293.5 316.025 1294.89 315.279 1294.89 313.711C1294.89 312.143 1293.81 311.321 1291.73 311.321H1284.88L1288.58 304.303ZM1330.06 299.157C1322.13 299.157 1318.2 294.528 1318.2 285.343C1318.2 276.309 1322.13 271.829 1330.06 271.829C1337.99 271.829 1341.91 276.309 1341.91 285.343C1341.91 294.528 1337.99 299.157 1330.06 299.157ZM1330.06 266.303C1317.51 266.303 1311.27 272.725 1311.27 285.493C1311.27 298.186 1317.58 304.608 1330.06 304.608C1342.6 304.608 1348.84 298.186 1348.84 285.493C1348.84 272.725 1342.6 266.303 1330.06 266.303ZM1325.51 252.49C1323.82 252.49 1322.13 253.012 1320.66 254.132V259.583C1322.43 258.463 1324.28 257.94 1326.13 257.94C1327.52 257.94 1328.98 258.239 1330.44 258.911C1331.9 259.508 1333.29 259.807 1334.6 259.807C1336.29 259.807 1337.99 259.284 1339.45 258.164V252.714C1337.68 253.834 1335.83 254.356 1333.98 254.356C1332.6 254.356 1331.13 254.058 1329.67 253.386C1328.21 252.788 1326.82 252.49 1325.51 252.49ZM1374.6 266.297C1385.84 266.297 1391.39 271.673 1391.39 282.5C1391.39 283.993 1391.31 285.636 1391.08 287.428H1363.36C1363.36 295.193 1368.06 299.151 1377.53 299.151C1381.99 299.151 1386 298.628 1389.46 297.657V303.108C1386 304.079 1381.76 304.601 1376.76 304.601C1363.21 304.601 1356.44 298.105 1356.44 285.038C1356.44 272.569 1362.44 266.297 1374.6 266.297ZM1363.36 281.753H1384.77C1384.61 275.033 1381.22 271.747 1374.6 271.747C1367.6 271.747 1363.83 275.033 1363.36 281.753ZM1400.96 296.911V302.809C1405.66 304.004 1410.28 304.601 1415.05 304.601C1425.98 304.601 1431.45 300.943 1431.45 293.7C1431.45 286.158 1426.9 282.35 1417.9 282.35H1412.28C1408.12 282.35 1406.04 280.633 1406.04 277.273C1406.04 273.614 1409.35 271.822 1415.9 271.822C1420.59 271.822 1425.29 272.494 1429.91 273.987V268.163C1425.29 266.894 1420.59 266.297 1415.9 266.297C1404.96 266.297 1399.5 269.955 1399.5 277.273C1399.5 284.814 1403.73 288.548 1412.28 288.548H1417.9C1422.28 288.548 1424.52 290.265 1424.52 293.7C1424.52 297.284 1421.36 299.151 1415.05 299.151C1410.28 299.151 1405.66 298.404 1400.96 296.911Z" fill="#3797C3"></path></svg>